<svg width="36" height="36" viewBox="0 0 36 36" fill="none" xmlns="http://www.w3.org/2000/svg">
<path d="M28.938 27.441C26.384 26.551 20.827 27.012 19 28.772V17C19 16.7348 18.8947 16.4804 18.7072 16.2929C18.5196 16.1054 18.2653 16 18 16C17.7348 16 17.4805 16.1054 17.2929 16.2929C17.1054 16.4804 17 16.7348 17 17V28.772C15.173 27.012 9.61604 26.551 7.06205 27.441C6.32105 27.7 12.326 36.19 16.569 31.948C16.737 31.78 16.875 31.618 17 31.458V35C17 35.2652 17.1054 35.5196 17.2929 35.7071C17.4805 35.8946 17.7348 36 18 36C18.2653 36 18.5196 35.8946 18.7072 35.7071C18.8947 35.5196 19 35.2652 19 35V31.458C19.125 31.618 19.263 31.78 19.431 31.948C23.674 36.19 29.679 27.7 28.938 27.441Z" fill="#77B255"/>
<path d="M12.5618 25.6501C11.9428 25.3841 11.4548 24.8131 11.1838 24.1371L9.91776 20.8311L6.65976 19.4381C5.32376 18.8641 4.78376 17.5161 5.35576 16.1791L6.71776 12.9981L5.35376 9.7291C4.81276 8.3791 5.50376 6.8611 6.85376 6.3211L10.1258 5.0401L11.5748 1.6561C12.1478 0.3201 13.4958 -0.219901 14.8328 0.352099L18.0908 1.7481L21.3578 0.3821C22.0328 0.1111 22.7688 0.1061 23.3878 0.371099C24.0068 0.636099 24.5018 1.1901 24.7728 1.8651L26.0468 5.1551L29.3558 6.5721C30.6918 7.1441 31.2308 8.4931 30.6608 9.8301L29.2098 13.2141L30.5748 16.4811C31.1158 17.8311 30.4248 19.3471 29.0748 19.8881L25.8038 21.1691L24.4408 24.3521C23.8688 25.6881 22.5188 26.2291 21.1828 25.6571L17.8748 24.2401L14.6078 25.6041C13.9318 25.8751 13.1808 25.9151 12.5618 25.6501Z" fill="#CCD6DD"/>
<path d="M29.3558 6.57208L26.0468 5.15508L25.9918 5.01208C24.4268 6.34908 20.7768 9.36608 20.7768 9.36608L20.7838 9.48908C19.9951 8.85269 19.0132 8.50387 17.9998 8.50008V1.70908L14.8328 0.353076C13.4958 -0.218924 12.1478 0.321076 11.5748 1.65708L10.1258 5.04108L10.0648 5.06508L14.8178 9.81908C14.3992 10.2362 14.0673 10.732 13.8411 11.278C13.6149 11.8239 13.4989 12.4091 13.4998 13.0001H6.71676L5.35576 16.1781C4.78376 17.5151 5.32376 18.8641 6.65976 19.4371L9.91776 20.8311L9.91976 20.8371L14.4158 15.6951C14.8317 16.2539 15.3722 16.708 15.9944 17.0213C16.6165 17.3346 17.3032 17.4986 17.9998 17.5001H18.0048C18.0108 19.4791 18.0198 22.7731 18.0168 24.3011L21.1808 25.6571C22.5168 26.2291 23.8668 25.6881 24.4388 24.3521L25.8008 21.1721L20.6088 16.6551C21.1924 16.2409 21.6684 15.6931 21.9972 15.0574C22.326 14.4218 22.498 13.7167 22.4988 13.0011C22.4988 12.9301 22.4808 12.8641 22.4778 12.7931C24.2798 12.9751 27.4288 13.2651 29.2998 13.4351L29.2078 13.2151L30.6598 9.83008C31.2308 8.49308 30.6908 7.14408 29.3558 6.57208Z" fill="#E1E8ED"/>
<path d="M18 18C20.7614 18 23 15.7614 23 13C23 10.2386 20.7614 8 18 8C15.2386 8 13 10.2386 13 13C13 15.7614 15.2386 18 18 18Z" fill="#F4900C"/>
</svg>
